<svg width="2048" height="2048" xmlns="http://www.w3.org/2000/svg" preserveAspectRatio="xMidYMid meet">

 <g>
  <title>background</title>
  <rect fill="#ffffff" id="canvas_background" height="2050" width="2050" y="-1" x="-1"/>
 </g>
 <g>
  <title>Layer 1</title>
  <g id="svg_1" fill="#f44336" transform="translate(0,2048) scale(0.10000000149011612,-0.10000000149011612) ">
   <path id="svg_2" d="m0,10240l0,-10240l10240,0l10240,0l0,10240l0,10240l-10240,0l-10240,0l0,-10240zm10666,4559c734,-72 1322,-366 1677,-838c216,-286 339,-626 354,-978l6,-133l-761,0l-761,0l-5,33c-3,17 -8,63 -11,101c-9,102 -57,241 -114,327c-163,249 -466,368 -863,338c-269,-20 -447,-89 -589,-229c-118,-116 -171,-240 -171,-399c1,-185 97,-329 319,-477c177,-119 388,-209 876,-374c425,-143 689,-251 936,-381c638,-338 1000,-769 1112,-1326c27,-136 37,-453 20,-600c-105,-868 -803,-1420 -1930,-1528c-179,-17 -573,-20 -741,-5c-714,65 -1352,329 -1746,724c-152,153 -252,291 -349,485c-128,256 -190,495 -202,779l-6,142l766,0l766,0l5,-42c3,-24 8,-82 10,-129c12,-181 80,-370 177,-491c160,-200 387,-293 776,-318c532,-34 863,131 943,470c20,82 15,250 -9,343c-28,106 -64,170 -141,247c-157,158 -410,283 -940,465c-563,193 -949,362 -1228,536c-426,265 -724,603 -851,962c-55,158 -72,261 -78,482c-5,174 -2,216 16,324c11,68 36,170 55,226c236,704 1003,1181 2041,1268c100,9 542,6 641,-4zm5244,-4c543,-58 950,-234 1261,-544c261,-261 401,-550 454,-936c25,-180 16,-491 -18,-635c-99,-414 -345,-743 -730,-975l-79,-47l72,-40c326,-176 610,-469 750,-773c155,-336 188,-785 88,-1195c-75,-309 -267,-622 -507,-827c-286,-244 -668,-404 -1136,-473c-209,-31 -633,-39 -855,-16c-804,85 -1374,419 -1664,976c-66,127 -99,213 -130,340c-46,181 -51,234 -51,490c1,217 3,257 23,350c94,433 322,763 702,1018c63,43 145,93 182,112c38,19 68,37 68,40c-1,3 -33,24 -73,46c-117,67 -235,160 -342,268c-321,327 -455,705 -424,1198c16,255 64,446 164,655c264,553 820,894 1580,972c136,14 519,12 665,-4zm-8600,-655l0,-590l-1420,0l-1420,0l0,-665l0,-665l1200,0l1200,0l0,-565l0,-565l-1200,0l-1200,0l0,-755l0,-755l1415,0l1415,0l0,-585l0,-585l-2175,0l-2175,0l0,3160l0,3160l2180,0l2180,0l0,-590zm11570,-7815l0,-665l-8530,0l-8530,0l0,665l0,665l8530,0l8530,0l0,-665z"/>
   <path id="svg_3" d="m15454,13671c-101,-16 -199,-59 -272,-119c-92,-75 -174,-237 -202,-401c-15,-82 -15,-310 0,-392c36,-206 141,-389 268,-467c148,-91 368,-112 546,-52c177,60 307,233 357,475c26,126 26,346 -1,474c-50,243 -196,413 -397,465c-75,20 -228,28 -299,17z"/>
   <path id="svg_4" d="m15444,11060c-143,-19 -286,-87 -387,-183c-129,-124 -197,-283 -216,-507c-40,-454 160,-793 526,-892c104,-28 308,-30 403,-4c192,52 337,169 430,347c73,141 106,338 90,543c-12,139 -33,222 -86,333c-73,153 -207,272 -371,328c-117,40 -252,52 -389,35z"/>
  </g>
 </g>
</svg>